<?xml version="1.0" standalone="no"?>
<!DOCTYPE svg PUBLIC "-//W3C//DTD SVG 20010904//EN"
 "http://www.w3.org/TR/2001/REC-SVG-20010904/DTD/svg10.dtd">
<svg version="1.0" xmlns="http://www.w3.org/2000/svg"
 width="114.000000pt" height="114.000000pt" viewBox="0 0 114.000000 114.000000"
 preserveAspectRatio="xMidYMid meet">
<metadata>
Created by potrace 1.11, written by Peter Selinger 2001-2013
</metadata>
<g transform="translate(0.000000,114.000000) scale(0.100000,-0.100000)"
fill="#000000" stroke="none">
<path d="M835 965 c-90 -21 -157 -70 -194 -144 -29 -56 -32 -137 -7 -175 22
-35 99 -70 191 -89 125 -25 157 -55 128 -115 -22 -46 -72 -65 -154 -60 -78 4
-105 22 -112 73 -4 30 -4 30 -70 33 -73 2 -69 5 -69 -63 0 -46 2 -53 28 -85
48 -57 96 -74 209 -74 88 -1 107 2 157 26 94 44 151 117 164 209 11 77 -31
131 -121 157 -233 67 -238 70 -230 110 7 39 24 60 65 76 74 29 150 14 176 -35
8 -16 14 -31 14 -34 0 -3 0 -9 0 -13 0 -5 28 -8 63 -8 l62 1 3 51 c2 39 -2 57
-20 84 -47 69 -168 102 -283 75z"/>
<path d="M236 903 c-2 -2 -16 -6 -31 -9 -52 -9 -123 -71 -152 -134 -37 -77
-39 -203 -5 -281 11 -25 35 -60 53 -79 93 -93 259 -101 359 -18 23 19 60 75
65 95 2 10 6 30 10 46 l7 27 -59 0 -60 0 -13 -37 c-32 -97 -157 -117 -226 -36
-41 47 -54 157 -27 230 30 84 111 119 191 83 25 -12 44 -29 53 -49 14 -32 17
-33 117 -31 12 0 9 43 -5 72 -24 49 -87 103 -134 115 -29 7 -137 12 -143 6z"/>
</g>
</svg>
